<svg xmlns="http://www.w3.org/2000/svg" width="512" height="512" viewBox="0 0 192 192">
  <rect width="192" height="192" rx="40" fill="#16a34a"/>
  <g transform="translate(40, 40)" fill="none" stroke="white" stroke-width="6" stroke-linecap="round" stroke-linejoin="round">
    <path d="M62.7 45.5a7.1 7.1 0 1 0 10.1-10l-6.3-6.4a7.1 7.1 0 0 0 10-10.1l-10-10a7.1 7.1 0 0 0-10.1 10l-6.3-6.3a7.1 7.1 0 1 0-10 10z"/>
    <path d="m8.9 76.8 5-5"/>
    <path d="m71.8 13.9 5-5"/>
    <path d="M19 76.3a7.1 7.1 0 1 0 10-10l6.3 6.3a7.1 7.1 0 1 0 10.1-10l-22.6-22.7a7.1 7.1 0 1 0-10 10.1l6.3 6.3a7.1 7.1 0 0 0-10 10z"/>
    <path d="m34.1 51.2 17.1-17"/>
  </g>
</svg>
